<svg width="48" height="48" version="1.1" xmlns="http://www.w3.org/2000/svg" xmlns:xlink="http://www.w3.org/1999/xlink">
 <defs>
  <linearGradient id="k" x1="8.9156475" x2="9.8855033" y1="37.197018" y2="52.090678" gradientTransform="matrix(3.12384 0 0 .9697 -31.88758 -19.59492)" gradientUnits="userSpaceOnUse">
   <stop stop-color="#9aa29a" offset="0"/>
   <stop stop-color="#b5beb5" offset="1"/>
  </linearGradient>
  <linearGradient id="n" x1="6.342216" x2="22.218424" y1="7.7893324" y2="25.884274" gradientUnits="userSpaceOnUse">
   <stop stop-color="#a0a0a0" offset="0"/>
   <stop stop-color="#fff" offset="1"/>
  </linearGradient>
  <radialGradient id="j" cx="31.112698" cy="19.008621" r="8.6620579" gradientUnits="userSpaceOnUse">
   <stop offset="0"/>
   <stop stop-opacity="0" offset="1"/>
  </radialGradient>
  <radialGradient id="q" cx="11.3292" cy="10.58397" r="15.532059" gradientUnits="userSpaceOnUse">
   <stop stop-color="#f3f4ff" offset="0"/>
   <stop stop-color="#9193af" offset="1"/>
  </radialGradient>
  <radialGradient id="m" cx="11.901996" cy="10.045444" r="29.292715" gradientUnits="userSpaceOnUse">
   <stop stop-color="#fffffd" offset="0"/>
   <stop stop-color="#cbcbc9" offset="1"/>
  </radialGradient>
  <radialGradient id="l" cx="8.7468252" cy="6.8283234" r="29.889715" gradientUnits="userSpaceOnUse">
   <stop stop-color="#9497b3" offset="0"/>
   <stop stop-color="#4c4059" offset="1"/>
  </radialGradient>
 </defs>
 <g fill-rule="evenodd">
  <path transform="matrix(2.56316 0 0 1.2196 -55.98414 14.04144)" d="m39.774755 19.008621a8.6620579 8.6620579 0 1 1-17.324115 0 8.6620579 8.6620579 0 1 1 17.324115 0z" fill="url(#j)"/>
  <path d="M18.587591 1.403729 4.226755 18.096665l1.2587167 1.243179L18.587591 1.403729z" fill="url(#k)"/>
  <path d="M18.467176 1.3138035 5.6605716 19.072612l1.8295269 1.615301L18.467176 1.3138035z" fill="#fefefe"/>
  <g stroke-linecap="round" stroke-linejoin="round">
   <path transform="translate(.569459 -1.654618) scale(1.43153)" d="m31.160714 16.910715a14.910714 14.910714 0 1 1-29.8214281 0 14.910714 14.910714 0 1 1 29.8214281 0z" fill="url(#l)" stroke="#605773" stroke-width=".69855404"/>
   <path transform="translate(4.824801 2.777556) scale(1.16384)" d="m31.160714 16.910715a14.910714 14.910714 0 1 1-29.8214281 0 14.910714 14.910714 0 1 1 29.8214281 0z" fill="url(#m)" stroke="url(#n)" stroke-width=".71139598"/>
   <path d="m26.7047721 22.69230922a2.52682828 2.52682828 0 1 1-5.05365657 0 2.52682828 2.52682828 0 1 1 5.05365656 0z" fill="#f3f3f3" stroke="#000" stroke-width=".99999759"/>
  </g>
 </g>
 <path d="m22.176614 20.718014-9.020912-7.577732" fill="none" stroke="#000" stroke-linecap="round"/>
 <path d="m19.408614 29.776506 2.960041-4.493278" fill="none" stroke="#000" stroke-linecap="round" stroke-width="2"/>
 <path d="m25.33180842 8.74302165a1.70116218 1.70116218 0 1 1-3.40232437 0 1.70116218 1.70116218 0 1 1 3.40232437 0zm0 27.21861a1.70116218 1.70116218 0 1 1-3.40232437 0 1.70116218 1.70116218 0 1 1 3.40232437 0zm-13.60931-13.60933a1.70116218 1.70116218 0 1 1-3.40232437 0 1.70116218 1.70116218 0 1 1 3.40232437 0zm27.218592 0a1.70116218 1.70116218 0 1 1-3.40232437 0 1.70116218 1.70116218 0 1 1 3.40232437 0z" fill="#b6b9b1" fill-rule="evenodd"/>
 <path transform="translate(1.769896 -.493735) scale(1.35765)" d="m31.160714 16.910715a14.910714 14.910714 0 1 1-29.8214281 0 14.910714 14.910714 0 1 1 29.8214281 0z" fill="none" stroke="url(#q)" stroke-linecap="round" stroke-linejoin="round" stroke-width=".73656511"/>
</svg>
