<svg width="200" height="200" version="1.1" xmlns="http://www.w3.org/2000/svg">
 <path d="m145.64 34.219-83.293 30.158 14.43 39.441a20.824 20.824 0 0 1 8.7676-1.9473 20.824 20.824 0 0 1 12.938 4.5137l64.873-23.492-17.715-48.674z" fill="#6795ce"/>
 <g fill="none">
  <g stroke="#2a5387" stroke-width="5">
   <path d="m127.94 160.6a18.127 18.127 0 0 1-18.127 18.127 18.127 18.127 0 0 1-18.127-18.127 18.127 18.127 0 0 1 18.127-18.127 18.127 18.127 0 0 1 18.127 18.127z"/>
   <path d="m106.37 122.69a20.824 20.824 0 0 1-20.824 20.824 20.824 20.824 0 0 1-20.824-20.824 20.824 20.824 0 0 1 20.824-20.824 20.824 20.824 0 0 1 20.824 20.824z"/>
   <path d="m172.81 131.01a22.846 22.846 0 0 1-22.846 22.846 22.846 22.846 0 0 1-22.846-22.846 22.846 22.846 0 0 1 22.846-22.846 22.846 22.846 0 0 1 22.846 22.846z"/>
   <path d="m65.838 129.03-16.822 6.1228-24.553-67.458 127.16-46.282 24.553 67.458-71.35 25.969"/>
  </g>
 </g>
</svg>
